<svg xmlns="http://www.w3.org/2000/svg" viewBox="0 0 364 364">
  <g fill="#1e73be" fill-rule="evenodd" clip-rule="evenodd">
    <path d="M244.4 83.4H119.6c-20 0-36.2 16.3-36.2 36.2v124.8c0 20 16.3 36.2 36.2 36.2h124.8c20 0 36.2-16.2 36.2-36.2V119.6c0-20-16.2-36.2-36.2-36.2zM182 247a65 65 0 11.2-130 65 65 0 01-.2 130zm67-116.4a15.4 15.4 0 110-30.7 15.4 15.4 0 010 30.7z"/>
    <path d="M182 144.5a37.5 37.5 0 100 75 37.5 37.5 0 000-75z"/>
    <path d="M0 0v364h364V0H0zm308 244.4c0 35-28.5 63.6-63.6 63.6H119.6c-35 0-63.6-28.5-63.6-63.6V119.6c0-35 28.5-63.6 63.6-63.6h124.8c35 0 63.6 28.5 63.6 63.6v124.8z"/>
  </g>
</svg>
